<svg id="Lager_1" data-name="Lager 1" xmlns="http://www.w3.org/2000/svg" viewBox="0 0 391.83 167.85"><defs><style>.cls-1{fill:#9d9d9c;}.cls-2{fill:#b2b2b2;}.cls-3{fill:#fff;}.cls-4{fill:#878787;}.cls-5{fill:#c6c6c6;}.cls-6{fill:#706f6f;}.cls-7{fill:#575756;}.cls-8{fill:#dadada;}</style></defs><title>Rityta 1</title><rect class="cls-1" x="80.1" y="16.88" width="58.15" height="53.43"/><rect class="cls-2" x="21.94" y="16.88" width="58.15" height="53.43"/><path class="cls-3" d="M52.38,65.4A48.05,48.05,0,0,1,43,64.59a26.07,26.07,0,0,1-7.32-2.51,15,15,0,0,1-5.27-4.56,13.08,13.08,0,0,1-2.27-6.31,4.25,4.25,0,0,1,4.23-4.64h3.47A4.26,4.26,0,0,1,40,49.86a3.71,3.71,0,0,0,.9,1.83,6.27,6.27,0,0,0,2.16,1.43,15.23,15.23,0,0,0,3.77,1,39.12,39.12,0,0,0,5.23.33,27.57,27.57,0,0,0,5-.41,13.19,13.19,0,0,0,3.27-1,3.75,3.75,0,0,0,1.29-1,.47.47,0,0,0,.11-.34,1.45,1.45,0,0,0,0-.39,4,4,0,0,0-1.06-.6,23.8,23.8,0,0,0-4.37-1.29c-2.06-.43-4.67-.88-7.76-1.34a62,62,0,0,1-7.32-1.54,24.75,24.75,0,0,1-5.64-2.28,11.91,11.91,0,0,1-4.18-3.84A10,10,0,0,1,29.83,35a10.24,10.24,0,0,1,2-6.11,13.9,13.9,0,0,1,4.78-4.06A23.75,23.75,0,0,1,43,22.53a37,37,0,0,1,7.62-.74,39.86,39.86,0,0,1,7.58.68,25.84,25.84,0,0,1,6.45,2.11,16,16,0,0,1,5,3.81,12.12,12.12,0,0,1,2.79,5.7,4.25,4.25,0,0,1-4.18,5H64.89a4.25,4.25,0,0,1-4-2.82,3,3,0,0,0-.68-1.07,5.8,5.8,0,0,0-1.6-1.11,12.67,12.67,0,0,0-3.09-1,23.41,23.41,0,0,0-4.63-.4c-4.5,0-6.75.66-7.86,1.21a2.64,2.64,0,0,0-1,.71v.15a2.85,2.85,0,0,0,.45.28,12.78,12.78,0,0,0,2.91,1c1.47.37,3.35.72,5.6,1l4.37.65c1.58.24,3.14.53,4.63.86A37.8,37.8,0,0,1,64.59,40,18.6,18.6,0,0,1,69,42.16a12.28,12.28,0,0,1,3.47,3.61,10.32,10.32,0,0,1,1.5,5.51,10.94,10.94,0,0,1-2.09,6.45,15.35,15.35,0,0,1-5,4.34,24.15,24.15,0,0,1-6.65,2.49A35,35,0,0,1,52.38,65.4Z"/><path class="cls-3" d="M52.38,61.15a43.46,43.46,0,0,1-8.51-.73,21.68,21.68,0,0,1-6.13-2.07A10.66,10.66,0,0,1,34,55.1a8.82,8.82,0,0,1-1.54-4.28h3.47a8,8,0,0,0,2,3.8A10.62,10.62,0,0,0,41.43,57a19.21,19.21,0,0,0,4.85,1.26,42.59,42.59,0,0,0,5.8.38,32.49,32.49,0,0,0,5.77-.48,17,17,0,0,0,4.39-1.4A7.8,7.8,0,0,0,65,54.61a4.72,4.72,0,0,0,1-2.9,4.83,4.83,0,0,0-.83-2.86,6.63,6.63,0,0,0-2.81-2,26.91,26.91,0,0,0-5.2-1.55c-2.15-.45-4.83-.92-8-1.39a59,59,0,0,1-6.78-1.43,20.39,20.39,0,0,1-4.67-1.87A7.61,7.61,0,0,1,35,38.15a5.8,5.8,0,0,1-.88-3.2,6,6,0,0,1,1.18-3.62,9.79,9.79,0,0,1,3.36-2.82,19.57,19.57,0,0,1,5.22-1.82A32.06,32.06,0,0,1,50.58,26a35.27,35.27,0,0,1,6.76.6,21.38,21.38,0,0,1,5.38,1.75,11.78,11.78,0,0,1,3.73,2.78,7.79,7.79,0,0,1,1.82,3.72H64.89a7.23,7.23,0,0,0-1.58-2.54,9.48,9.48,0,0,0-2.83-2A16.76,16.76,0,0,0,56.36,29a28,28,0,0,0-5.47-.48q-6.45,0-9.77,1.67c-2.21,1.12-3.31,2.64-3.31,4.58a4.3,4.3,0,0,0,.61,2.32,5.4,5.4,0,0,0,2.09,1.78,16.8,16.8,0,0,0,3.88,1.39q2.41.6,6,1.13l4.34.65c1.5.23,3,.5,4.37.81A33,33,0,0,1,63.18,44a13.87,13.87,0,0,1,3.36,1.67A8,8,0,0,1,68.82,48a6.05,6.05,0,0,1,.86,3.26,6.67,6.67,0,0,1-1.3,4,11.11,11.11,0,0,1-3.6,3.12,19.68,19.68,0,0,1-5.48,2A30.8,30.8,0,0,1,52.38,61.15Z"/><path class="cls-3" d="M110.76,64.58a35.59,35.59,0,0,1-10.41-1.44A25,25,0,0,1,92,58.85a19.72,19.72,0,0,1-5.57-7.06,21.18,21.18,0,0,1-1.94-9.12,20.78,20.78,0,0,1,2-9.07,19.69,19.69,0,0,1,5.61-7,24.93,24.93,0,0,1,8.34-4.23A36,36,0,0,1,110.76,21a33.71,33.71,0,0,1,7.54.82,27.66,27.66,0,0,1,6.64,2.36A19.87,19.87,0,0,1,130.28,28a14.13,14.13,0,0,1,3.37,5.61,4.25,4.25,0,0,1-4.06,5.5h-3.65a4.25,4.25,0,0,1-4-3,2.83,2.83,0,0,0-.76-1.11A8,8,0,0,0,119,33.59a16.23,16.23,0,0,0-3.57-1.19,21.57,21.57,0,0,0-4.61-.46,23.79,23.79,0,0,0-6.42.8,12.57,12.57,0,0,0-4.33,2.09,8.19,8.19,0,0,0-2.45,3.1,11.29,11.29,0,0,0-.9,4.74,11.34,11.34,0,0,0,.91,4.77,8.52,8.52,0,0,0,2.48,3.2,12.35,12.35,0,0,0,4.29,2.15,22.46,22.46,0,0,0,6.29.82,19.47,19.47,0,0,0,8.41-1.54c2-1,2.53-2.1,2.75-3a4.25,4.25,0,0,1,4.11-3.2h3.65a4.25,4.25,0,0,1,4.15,5.16,14,14,0,0,1-3.07,6.17,18,18,0,0,1-5.33,4.19,25.86,25.86,0,0,1-6.77,2.38A37.19,37.19,0,0,1,110.76,64.58Z"/><path class="cls-3" d="M125.94,34.9a7,7,0,0,0-1.8-2.83,12.07,12.07,0,0,0-3.29-2.29,19.5,19.5,0,0,0-4.54-1.53,26,26,0,0,0-5.51-.56,27.79,27.79,0,0,0-7.57,1,16.62,16.62,0,0,0-5.8,2.83,12.7,12.7,0,0,0-3.69,4.67,15.45,15.45,0,0,0-1.29,6.52,15.64,15.64,0,0,0,1.29,6.54A13,13,0,0,0,97.43,54a16.58,16.58,0,0,0,5.75,2.91,26.47,26.47,0,0,0,7.49,1,23.47,23.47,0,0,0,10.27-2,8.68,8.68,0,0,0,5-5.74h3.65a9.79,9.79,0,0,1-2.15,4.32,13.86,13.86,0,0,1-4.09,3.2,21.29,21.29,0,0,1-5.66,2,33.58,33.58,0,0,1-6.93.68,31.22,31.22,0,0,1-9.16-1.25,20.87,20.87,0,0,1-6.91-3.54A15.5,15.5,0,0,1,90.3,50a16.85,16.85,0,0,1-1.54-7.31,16.47,16.47,0,0,1,1.54-7.24,15.32,15.32,0,0,1,4.41-5.5,20.67,20.67,0,0,1,6.94-3.49,31.68,31.68,0,0,1,9.11-1.22,29.41,29.41,0,0,1,6.6.71,23.84,23.84,0,0,1,5.64,2A15.78,15.78,0,0,1,127.22,31a9.77,9.77,0,0,1,2.37,3.91Z"/><path class="cls-4" d="M391.83,167.85H0V0H391.83ZM10.54,159.61H381.29V8.24H10.54Z"/><rect class="cls-5" x="196.41" y="16.88" width="58.15" height="53.43"/><rect class="cls-6" x="138.25" y="16.88" width="58.15" height="53.43"/><rect class="cls-7" x="312.32" y="16.88" width="58.15" height="53.43"/><rect class="cls-4" x="254.17" y="16.88" width="58.15" height="53.43"/><path class="cls-3" d="M183.3,64.78a4.25,4.25,0,0,1-3.75-2.26l-4.78-9a16.85,16.85,0,0,0-1.21-1.89,5.6,5.6,0,0,0-1.14-1.14,5,5,0,0,0-1.43-.72,6.71,6.71,0,0,0-2.09-.27H156.34v11a4.25,4.25,0,0,1-4.25,4.25h-3.51a4.25,4.25,0,0,1-4.25-4.25V26.66a4.25,4.25,0,0,1,4.25-4.25h21.64a48.27,48.27,0,0,1,6.44.42,23,23,0,0,1,6.2,1.71,13.08,13.08,0,0,1,5.2,4.06,11.42,11.42,0,0,1,2.17,7,12.83,12.83,0,0,1-.9,4.76,11.81,11.81,0,0,1-2.8,4.1,13.06,13.06,0,0,1-2.29,1.75c.19.3.37.6.53.91l1.16,2.13,5,9.24a4.25,4.25,0,0,1-3.74,6.26ZM168.77,38.53a38.65,38.65,0,0,0,5.49-.33,9.07,9.07,0,0,0,2.85-.79,1.94,1.94,0,0,0,.72-.57,2.63,2.63,0,0,0,.22-1.21c0-.7-.11-.87-.73-1.17-1-.49-3.18-1.08-7.54-1.08H156.34v5.15Z"/><path class="cls-3" d="M187.17,60.53H183.3l-4.78-9A20.39,20.39,0,0,0,177,49.08a9.93,9.93,0,0,0-2-2,9.21,9.21,0,0,0-2.61-1.35,10.84,10.84,0,0,0-3.45-.49H152.09V60.53h-3.51V26.66h21.64a43,43,0,0,1,5.86.38,18.56,18.56,0,0,1,5,1.38,8.71,8.71,0,0,1,3.53,2.74A7.19,7.19,0,0,1,186,35.63a8.51,8.51,0,0,1-.59,3.17,7.72,7.72,0,0,1-1.8,2.63,10.62,10.62,0,0,1-3.08,2,17.34,17.34,0,0,1-4.36,1.19A17.65,17.65,0,0,1,178.39,46a9.55,9.55,0,0,1,1.51,1.46,10.29,10.29,0,0,1,1.14,1.7l1.17,2.13ZM152.09,42.77h16.68a42.59,42.59,0,0,0,6.1-.37,13.43,13.43,0,0,0,4.2-1.22A5.77,5.77,0,0,0,181.5,39a6.53,6.53,0,0,0,.79-3.34,5.14,5.14,0,0,0-3.14-5q-3.14-1.5-9.37-1.5H152.09Z"/><rect class="cls-3" x="218.65" y="21.59" width="12.01" height="42.37" rx="4.25"/><path class="cls-3" d="M226.41,59.71h-3.52V25.84h3.52Z"/><path class="cls-3" d="M265.45,65a4.25,4.25,0,0,1-4.25-4.24V26.89a4.26,4.26,0,0,1,4.25-4.25h17.47a59.2,59.2,0,0,1,7.28.44,25,25,0,0,1,6.89,1.78A14.17,14.17,0,0,1,302.67,29a11.33,11.33,0,0,1,2.41,7.31,12.46,12.46,0,0,1-6.56,11.24c-3.67,2.14-8.63,3.18-15.16,3.18H273.21V60.77A4.24,4.24,0,0,1,269,65Zm18-25.26a29.77,29.77,0,0,0,5.48-.42,9.22,9.22,0,0,0,2.9-.95,2.17,2.17,0,0,0,.78-.69,2.81,2.81,0,0,0,.25-1.27,1.94,1.94,0,0,0-.18-1,3,3,0,0,0-1.29-.86,11.9,11.9,0,0,0-3.26-.73c-1.53-.15-3.16-.23-4.85-.23H273.21v6.14Z"/><path class="cls-3" d="M265.45,26.89h17.47a56.61,56.61,0,0,1,6.76.4,21.05,21.05,0,0,1,5.73,1.47,10,10,0,0,1,3.95,2.9,7.14,7.14,0,0,1,1.47,4.64,8.29,8.29,0,0,1-4.45,7.58q-4.45,2.59-13,2.59H269v14.3h-3.51ZM269,44h14.53a34,34,0,0,0,6.28-.5A13.46,13.46,0,0,0,294,42.05a6.11,6.11,0,0,0,2.39-2.37,6.79,6.79,0,0,0,.75-3.26A5.68,5.68,0,0,0,296,32.77a7.17,7.17,0,0,0-3-2.15,16.43,16.43,0,0,0-4.41-1c-1.67-.16-3.43-.24-5.27-.24H269Z"/><path class="cls-3" d="M339.55,65.42a4.24,4.24,0,0,1-4.24-4.25V34H322.92a4.25,4.25,0,0,1-4.25-4.25V27.3a4.25,4.25,0,0,1,4.25-4.25h37a4.25,4.25,0,0,1,4.25,4.25v2.47A4.25,4.25,0,0,1,359.88,34H347.31V61.17a4.24,4.24,0,0,1-4.24,4.25Z"/><path class="cls-3" d="M359.88,29.77H343.07v31.4h-3.52V29.77H322.92V27.3h37Z"/><rect class="cls-6" x="22.06" y="70.31" width="87.17" height="80.09"/><rect class="cls-8" x="109.05" y="70.31" width="87.17" height="80.09"/><rect class="cls-1" x="196.31" y="70.31" width="87.17" height="80.09"/><rect class="cls-2" x="283.3" y="70.31" width="87.17" height="80.09"/><path class="cls-3" d="M44.42,139.25a5.83,5.83,0,0,1-5.85-5.8V87.25a5.82,5.82,0,0,1,5.85-5.79H68.33c7.63,0,13.47,1.06,17.86,3.25a14.61,14.61,0,0,1,8.51,13.6,18.57,18.57,0,0,1-.65,4.78,13.94,13.94,0,0,1-2,4.41,14.35,14.35,0,0,1,2,1.75,13.77,13.77,0,0,1,3.47,6,20.35,20.35,0,0,1,.71,5.22c0,6.35-3.14,11.43-9.08,14.69-5,2.73-11.74,4.06-20.67,4.06Zm24-15c2.15,0,12.87-.19,12.87-3.79a3.57,3.57,0,0,0-.29-1.6h0a2.43,2.43,0,0,0-.75-.5,15,15,0,0,0-4.4-1.18,63,63,0,0,0-8.76-.5h-12v7.57ZM67,101.75c6.51,0,9.34-.88,10.45-1.41.66-.32.85-.45.85-1.44,0-.56,0-.75-.77-1.16s-3.26-1.36-9.62-1.36l-12.82,0v5.34Z"/><path class="cls-3" d="M92.36,120.5q0,6.28-6.07,9.62t-17.84,3.33h-24V87.25H68.33q10,0,15.24,2.64a8.8,8.8,0,0,1,5.28,8.42,13,13,0,0,1-.45,3.31,8.25,8.25,0,0,1-1.66,3.18,11.06,11.06,0,0,1-3.32,2.64A16.42,16.42,0,0,1,78,109.11a25.08,25.08,0,0,1,7.45,1.41,12.44,12.44,0,0,1,4.35,2.72,8,8,0,0,1,2,3.53A14.51,14.51,0,0,1,92.36,120.5Zm-43.11-13H67q8.81,0,13-2a6.83,6.83,0,0,0,4.16-6.66,6.65,6.65,0,0,0-3.86-6.27q-3.87-2-12.38-2l-18.65,0Zm0,22.53H68.39q18.7,0,18.71-9.58a9.07,9.07,0,0,0-1-4.3,7.26,7.26,0,0,0-3.29-3,21,21,0,0,0-6.16-1.73,67.42,67.42,0,0,0-9.63-.57H49.25Z"/><path class="cls-3" d="M128.89,138.53a5.83,5.83,0,0,1-5.84-5.8V86.53a5.83,5.83,0,0,1,5.84-5.8H175a5.82,5.82,0,0,1,5.84,5.8V89.9A5.82,5.82,0,0,1,175,95.7H139.56v5.5h32.87a5.82,5.82,0,0,1,5.84,5.79v3.38a5.82,5.82,0,0,1-5.84,5.79H139.56v7.4h37.09a5.82,5.82,0,0,1,5.84,5.8v3.37a5.82,5.82,0,0,1-5.84,5.8Z"/><path class="cls-3" d="M176.65,132.73H128.89V86.53H175V89.9h-41.3V107h38.71v3.38H133.72v19h42.93Z"/><path class="cls-3" d="M263.57,136.9a5.88,5.88,0,0,1-5.15-3L252,122H226.53q-1.07,2.08-2.22,4.29l-3.93,7.46a5.85,5.85,0,0,1-5.18,3.11h-5.13a5.87,5.87,0,0,1-5-2.83,5.75,5.75,0,0,1-.12-5.72q3.27-6,6.45-11.76L224,93.76q3.17-5.73,6.42-11.67a5.84,5.84,0,0,1,5.13-3h6.82A5.86,5.86,0,0,1,247.43,82l27,46.25a5.76,5.76,0,0,1,0,5.8,5.85,5.85,0,0,1-5.06,2.9Zm-19.73-29.1-5-8.31-4.7,8.31Z"/><path class="cls-3" d="M269.36,131.1h-5.79l-8.1-14.85H222.93q-1.76,3.5-3.8,7.41l-3.93,7.44h-5.13q3.26-6,6.43-11.73L222.81,108q3.13-5.68,6.31-11.42t6.43-11.68h6.82Zm-15.27-17.51-15.34-25.7-14.55,25.7Z"/><path class="cls-3" d="M324.35,136.88a5.83,5.83,0,0,1-5.84-5.8v-37h-17a5.82,5.82,0,0,1-5.84-5.8V84.88a5.82,5.82,0,0,1,5.84-5.8h50.84a5.83,5.83,0,0,1,5.84,5.8v3.37a5.83,5.83,0,0,1-5.84,5.8H335v37a5.83,5.83,0,0,1-5.85,5.8Z"/><path class="cls-3" d="M352.31,88.25H329.18v42.83h-4.83V88.25H301.47V84.88h50.84Z"/></svg>