<svg id="Lager_1" data-name="Lager 1" xmlns="http://www.w3.org/2000/svg" viewBox="0 0 261.5 143.79"><defs><style>.cls-1{fill:#9d9d9c;}.cls-2{fill:#b2b2b2;}.cls-3{fill:#fff;}.cls-4{fill:#878787;}.cls-5{fill:#c6c6c6;}.cls-6{fill:#706f6f;}.cls-7{fill:#575756;}.cls-8{fill:#dadada;}.cls-9{fill:#ededed;}</style></defs><title>Rityta 4</title><rect class="cls-1" x="53.46" y="13.61" width="38.81" height="35.66"/><rect class="cls-2" x="14.64" y="13.61" width="38.81" height="35.66"/><path class="cls-3" d="M35,46a32.23,32.23,0,0,1-6.24-.54,17.45,17.45,0,0,1-4.88-1.67,10,10,0,0,1-3.52-3.05,8.71,8.71,0,0,1-1.51-4.21,2.82,2.82,0,0,1,2.82-3.09h2.31a2.84,2.84,0,0,1,2.77,2.2,2.43,2.43,0,0,0,.6,1.21,4.18,4.18,0,0,0,1.44,1,10,10,0,0,0,2.52.65,25.47,25.47,0,0,0,3.48.22,18.5,18.5,0,0,0,3.34-.27,8.51,8.51,0,0,0,2.18-.68,2.54,2.54,0,0,0,.86-.63.32.32,0,0,0,.08-.23.89.89,0,0,0,0-.27,3.28,3.28,0,0,0-.71-.4,16.07,16.07,0,0,0-2.92-.85c-1.37-.29-3.11-.59-5.18-.9a42.23,42.23,0,0,1-4.88-1,16.24,16.24,0,0,1-3.77-1.52,7.86,7.86,0,0,1-2.78-2.56,6.62,6.62,0,0,1-1-3.66,6.83,6.83,0,0,1,1.32-4.08,9.6,9.6,0,0,1,3.19-2.71,16.32,16.32,0,0,1,4.25-1.5,24.57,24.57,0,0,1,5.09-.49,26.57,26.57,0,0,1,5.05.45,17.31,17.31,0,0,1,4.31,1.41,10.84,10.84,0,0,1,3.37,2.54,8.07,8.07,0,0,1,1.86,3.81,2.84,2.84,0,0,1-2.79,3.36H43.31a2.83,2.83,0,0,1-2.67-1.88,2.2,2.2,0,0,0-.46-.71,3.52,3.52,0,0,0-1.07-.74,8.61,8.61,0,0,0-2.06-.66A16.51,16.51,0,0,0,34,24.21a12.09,12.09,0,0,0-5.24.81,1.59,1.59,0,0,0-.65.47v.1a2.81,2.81,0,0,0,.3.19,8.23,8.23,0,0,0,1.94.68c1,.24,2.24.48,3.74.7l2.92.43c1.05.17,2.09.36,3.09.57a26.26,26.26,0,0,1,3,.86A12.57,12.57,0,0,1,46,30.48a8.3,8.3,0,0,1,2.32,2.41,6.91,6.91,0,0,1,1,3.68,7.22,7.22,0,0,1-1.4,4.3,10.17,10.17,0,0,1-3.3,2.9,16,16,0,0,1-4.44,1.66A23.52,23.52,0,0,1,35,46Z"/><path class="cls-3" d="M35,43.16a29.53,29.53,0,0,1-5.68-.49,14.3,14.3,0,0,1-4.09-1.38,7.22,7.22,0,0,1-2.54-2.17,6,6,0,0,1-1-2.86h2.31a5.38,5.38,0,0,0,1.32,2.54,7.14,7.14,0,0,0,2.39,1.61,13,13,0,0,0,3.24.85,29.46,29.46,0,0,0,3.86.25,20.58,20.58,0,0,0,3.86-.33,11.23,11.23,0,0,0,2.93-.92,5.24,5.24,0,0,0,1.86-1.47A3.37,3.37,0,0,0,43.48,35a4.33,4.33,0,0,0-1.87-1.35,18.49,18.49,0,0,0-3.47-1q-2.16-.45-5.35-.92a41.51,41.51,0,0,1-4.53-.95,14.13,14.13,0,0,1-3.12-1.25,5.19,5.19,0,0,1-1.81-1.63,3.93,3.93,0,0,1-.59-2.14,4.1,4.1,0,0,1,.79-2.42,6.7,6.7,0,0,1,2.24-1.88,13.2,13.2,0,0,1,3.49-1.21,21.6,21.6,0,0,1,4.5-.44,23.32,23.32,0,0,1,4.51.41,13.89,13.89,0,0,1,3.59,1.16,8,8,0,0,1,2.49,1.86,5.2,5.2,0,0,1,1.21,2.48H43.31a5,5,0,0,0-1.06-1.7,6.27,6.27,0,0,0-1.89-1.35,11.54,11.54,0,0,0-2.75-.89A18.92,18.92,0,0,0,34,21.37a15,15,0,0,0-6.52,1.12,3.39,3.39,0,0,0-2.21,3.06,2.88,2.88,0,0,0,.41,1.54A3.64,3.64,0,0,0,27,28.28a11.65,11.65,0,0,0,2.6.93,40.23,40.23,0,0,0,4,.75l2.9.44c1,.15,2,.33,2.92.53a22.43,22.43,0,0,1,2.71.77,9.36,9.36,0,0,1,2.24,1.11,5.43,5.43,0,0,1,1.52,1.58,4.07,4.07,0,0,1,.57,2.18,4.48,4.48,0,0,1-.86,2.65,7.49,7.49,0,0,1-2.4,2.09,13.5,13.5,0,0,1-3.67,1.36A20.83,20.83,0,0,1,35,43.16Z"/><path class="cls-3" d="M73.92,45.44a23.59,23.59,0,0,1-7-1,16.57,16.57,0,0,1-5.55-2.86,13.12,13.12,0,0,1-3.72-4.71,14.15,14.15,0,0,1-1.3-6.09,13.83,13.83,0,0,1,1.31-6.05,13,13,0,0,1,3.74-4.67A16.52,16.52,0,0,1,67,17.28a24,24,0,0,1,6.9-.94,22.28,22.28,0,0,1,5,.55,19,19,0,0,1,4.43,1.57,13.3,13.3,0,0,1,3.56,2.6,9.32,9.32,0,0,1,2.25,3.74,2.84,2.84,0,0,1-2.71,3.67H84.05a2.85,2.85,0,0,1-2.7-2,1.76,1.76,0,0,0-.5-.74,5.51,5.51,0,0,0-1.45-1A10.54,10.54,0,0,0,77,24a14.81,14.81,0,0,0-3.08-.31,15.66,15.66,0,0,0-4.28.54,8.28,8.28,0,0,0-2.89,1.39,5.43,5.43,0,0,0-1.63,2.07,7.55,7.55,0,0,0-.61,3.16A7.72,7.72,0,0,0,65.14,34a5.53,5.53,0,0,0,1.66,2.13,8.36,8.36,0,0,0,2.86,1.44,15,15,0,0,0,4.2.54,13,13,0,0,0,5.61-1,3,3,0,0,0,1.84-2A2.83,2.83,0,0,1,84.05,33h2.43A2.84,2.84,0,0,1,88.69,34a2.8,2.8,0,0,1,.56,2.38,9.32,9.32,0,0,1-2,4.12,11.91,11.91,0,0,1-3.55,2.8,17.45,17.45,0,0,1-4.52,1.59A25.3,25.3,0,0,1,73.92,45.44Z"/><path class="cls-3" d="M84.05,25.64a4.53,4.53,0,0,0-1.2-1.89,8.1,8.1,0,0,0-2.2-1.53,13.46,13.46,0,0,0-3-1,17.19,17.19,0,0,0-3.68-.37,18.46,18.46,0,0,0-5,.64A10.93,10.93,0,0,0,65,23.36a8.43,8.43,0,0,0-2.46,3.11,10.39,10.39,0,0,0-.86,4.35,10.52,10.52,0,0,0,.86,4.37A8.71,8.71,0,0,0,65,38.36a11.2,11.2,0,0,0,3.84,1.94,17.7,17.7,0,0,0,5,.66,15.72,15.72,0,0,0,6.85-1.31,5.81,5.81,0,0,0,3.34-3.83h2.43a6.52,6.52,0,0,1-1.43,2.88,9,9,0,0,1-2.73,2.13,14.6,14.6,0,0,1-3.78,1.33,22.42,22.42,0,0,1-4.62.45,20.56,20.56,0,0,1-6.11-.84,13.61,13.61,0,0,1-4.62-2.36,10.37,10.37,0,0,1-2.93-3.71,11.37,11.37,0,0,1-1-4.88,11.11,11.11,0,0,1,1-4.83,10.45,10.45,0,0,1,3-3.67A13.9,13.9,0,0,1,67.84,20a21.16,21.16,0,0,1,6.08-.81,19.59,19.59,0,0,1,4.4.47A16.08,16.08,0,0,1,82.09,21,10.56,10.56,0,0,1,84.9,23a6.49,6.49,0,0,1,1.58,2.61Z"/><path class="cls-4" d="M261.5,143.79H0V0H261.5ZM7,136.73H254.46V7.06H7Z"/><rect class="cls-5" x="131.08" y="13.61" width="38.81" height="35.66"/><rect class="cls-6" x="92.27" y="13.61" width="38.81" height="35.66"/><rect class="cls-7" x="208.43" y="13.61" width="38.81" height="35.66"/><rect class="cls-4" x="169.62" y="13.61" width="38.81" height="35.66"/><path class="cls-3" d="M122.33,45.58a2.82,2.82,0,0,1-2.5-1.51l-3.2-6a10.43,10.43,0,0,0-.8-1.27,3.91,3.91,0,0,0-.76-.76,3.52,3.52,0,0,0-.95-.48,4.54,4.54,0,0,0-1.4-.18h-8.38v7.36a2.84,2.84,0,0,1-2.84,2.84H99.16a2.84,2.84,0,0,1-2.84-2.84V20.14a2.84,2.84,0,0,1,2.84-2.84H113.6a31.53,31.53,0,0,1,4.29.29A15.21,15.21,0,0,1,122,18.72a8.74,8.74,0,0,1,3.46,2.71A7.57,7.57,0,0,1,127,26.12a8.44,8.44,0,0,1-.6,3.18A7.79,7.79,0,0,1,124.48,32,8.62,8.62,0,0,1,123,33.21c.12.2.24.4.35.6l.78,1.42,3.32,6.17a2.84,2.84,0,0,1-2.5,4.18Zm-9.7-17.52a27,27,0,0,0,3.67-.22,6.17,6.17,0,0,0,1.9-.53,1.13,1.13,0,0,0,.48-.38,1.81,1.81,0,0,0,.14-.81c0-.46-.07-.58-.48-.77a12.19,12.19,0,0,0-5-.73h-9v3.44Z"/><path class="cls-3" d="M124.91,42.74h-2.58l-3.19-6a13,13,0,0,0-1-1.64,6.5,6.5,0,0,0-1.34-1.33,6,6,0,0,0-1.74-.9,7.2,7.2,0,0,0-2.3-.33H101.5v10.2H99.16V20.14H113.6a29.2,29.2,0,0,1,3.91.25,12.67,12.67,0,0,1,3.37.92,5.88,5.88,0,0,1,2.36,1.83,4.79,4.79,0,0,1,.88,3,5.48,5.48,0,0,1-.4,2.12,4.9,4.9,0,0,1-1.2,1.75,7.05,7.05,0,0,1-2,1.33,11.39,11.39,0,0,1-2.91.79,11.82,11.82,0,0,1,1.49,1,6.24,6.24,0,0,1,1,1,7.07,7.07,0,0,1,.76,1.14c.23.41.49.88.78,1.42ZM101.5,30.89h11.13a28.1,28.1,0,0,0,4.08-.25,8.72,8.72,0,0,0,2.79-.81,3.81,3.81,0,0,0,1.63-1.48,4.38,4.38,0,0,0,.53-2.23,3.43,3.43,0,0,0-2.1-3.33,15,15,0,0,0-6.25-1H101.5Z"/><rect class="cls-3" x="145.92" y="16.75" width="8.01" height="28.28" rx="2.83"/><path class="cls-3" d="M151.1,42.2h-2.35V19.59h2.35Z"/><path class="cls-3" d="M177.15,45.74a2.84,2.84,0,0,1-2.83-2.84V20.29a2.83,2.83,0,0,1,2.83-2.83h11.66a40.17,40.17,0,0,1,4.86.29,16.84,16.84,0,0,1,4.6,1.19A9.42,9.42,0,0,1,202,21.69a7.57,7.57,0,0,1,1.61,4.88,8.33,8.33,0,0,1-4.38,7.51c-2.44,1.42-5.75,2.12-10.11,2.12h-6.78v6.7a2.84,2.84,0,0,1-2.83,2.84Zm12-16.87a20.63,20.63,0,0,0,3.65-.27,6.35,6.35,0,0,0,1.94-.64,1.34,1.34,0,0,0,.51-.46,1.71,1.71,0,0,0,.17-.85,1.22,1.22,0,0,0-.12-.66,2,2,0,0,0-.86-.57,7.89,7.89,0,0,0-2.18-.49c-1-.1-2.11-.15-3.23-.15h-6.75v4.09Z"/><path class="cls-3" d="M177.15,20.29h11.66a36.6,36.6,0,0,1,4.52.27,14.22,14.22,0,0,1,3.82,1,6.87,6.87,0,0,1,2.64,1.93,4.83,4.83,0,0,1,1,3.1,5.52,5.52,0,0,1-3,5.06q-3,1.73-8.68,1.73H179.5V42.9h-2.35Zm2.35,11.42h9.7a22.8,22.8,0,0,0,4.19-.33,8.85,8.85,0,0,0,2.82-1,4.05,4.05,0,0,0,1.6-1.58,4.61,4.61,0,0,0,.5-2.18,3.73,3.73,0,0,0-.75-2.43,4.83,4.83,0,0,0-2-1.44,10.76,10.76,0,0,0-2.95-.67c-1.11-.11-2.28-.17-3.51-.17H179.5Z"/><path class="cls-3" d="M226.61,46a2.84,2.84,0,0,1-2.84-2.84V25.05h-8.26a2.84,2.84,0,0,1-2.84-2.83V20.56a2.84,2.84,0,0,1,2.84-2.83h24.66A2.84,2.84,0,0,1,243,20.56v1.66a2.84,2.84,0,0,1-2.84,2.83h-8.38V43.17A2.84,2.84,0,0,1,229,46Z"/><path class="cls-3" d="M240.17,22.22H229v21h-2.34v-21h-11.1V20.56h24.66Z"/><rect class="cls-6" x="14.72" y="49.27" width="58.18" height="53.45"/><rect class="cls-8" x="72.78" y="49.27" width="58.18" height="53.45"/><rect class="cls-1" x="131.01" y="49.27" width="58.18" height="53.45"/><rect class="cls-2" x="189.07" y="49.27" width="58.18" height="53.45"/><path class="cls-3" d="M29.64,95.28a3.89,3.89,0,0,1-3.9-3.87V60.58a3.89,3.89,0,0,1,3.9-3.87h16c5.09,0,9,.71,11.92,2.17A9.75,9.75,0,0,1,63.2,68a12.81,12.81,0,0,1-.43,3.2,9.49,9.49,0,0,1-1.37,2.94,10.26,10.26,0,0,1,1.35,1.16,9.19,9.19,0,0,1,2.31,4,13.31,13.31,0,0,1,.47,3.49,10.77,10.77,0,0,1-6.06,9.8c-3.31,1.82-7.83,2.71-13.79,2.71Zm16-10c1.43,0,8.59-.12,8.59-2.52A2.5,2.5,0,0,0,54,81.7h0a1.62,1.62,0,0,0-.5-.34,9.74,9.74,0,0,0-2.94-.78,40.52,40.52,0,0,0-5.85-.34h-8v5.05Zm-.93-15c4.35,0,6.24-.59,7-.94.44-.21.57-.3.57-1,0-.37,0-.5-.52-.77s-2.18-.91-6.42-.91l-8.56,0v3.56Z"/><path class="cls-3" d="M61.64,82.77a7,7,0,0,1-4,6.42q-4.05,2.22-11.91,2.22h-16V60.58h16c4.43,0,7.82.58,10.17,1.76A5.87,5.87,0,0,1,59.3,68a8.63,8.63,0,0,1-.3,2.21,5.74,5.74,0,0,1-1.11,2.13,7.51,7.51,0,0,1-2.22,1.76,10.82,10.82,0,0,1-3.62,1.11,16.46,16.46,0,0,1,5,1,8,8,0,0,1,2.9,1.81,5.41,5.41,0,0,1,1.37,2.35A9.65,9.65,0,0,1,61.64,82.77ZM32.87,74.12H44.71q5.88,0,8.67-1.32a4.58,4.58,0,0,0,2.78-4.45,4.45,4.45,0,0,0-2.58-4.18c-1.72-.91-4.48-1.37-8.26-1.37l-12.45,0Zm0,15H45.64q12.49,0,12.49-6.39a6.18,6.18,0,0,0-.64-2.88,4.83,4.83,0,0,0-2.2-2,13.91,13.91,0,0,0-4.11-1.16,45.57,45.57,0,0,0-6.43-.38H32.87Z"/><path class="cls-3" d="M86,94.79a3.88,3.88,0,0,1-3.9-3.86V60.09A3.88,3.88,0,0,1,86,56.23H116.8a3.88,3.88,0,0,1,3.9,3.86v2.25a3.88,3.88,0,0,1-3.9,3.87H93.14v3.67h21.93a3.89,3.89,0,0,1,3.9,3.87V76a3.89,3.89,0,0,1-3.9,3.87H93.14v4.94h24.75a3.88,3.88,0,0,1,3.9,3.87v2.25a3.88,3.88,0,0,1-3.9,3.86Z"/><path class="cls-3" d="M117.89,90.93H86V60.09H116.8v2.25H89.24V73.75h25.83V76H89.24V88.68h28.65Z"/><path class="cls-3" d="M175.9,93.71a3.89,3.89,0,0,1-3.43-2l-4.3-7.89h-17c-.47.93-1,1.89-1.48,2.87l-2.63,5a3.89,3.89,0,0,1-3.45,2.08h-3.43a3.89,3.89,0,0,1-3.34-1.89,3.83,3.83,0,0,1-.09-3.82q2.19-4,4.31-7.84l8.42-15.24q2.12-3.83,4.28-7.79a3.93,3.93,0,0,1,3.43-2h4.55A3.93,3.93,0,0,1,165.13,57l18,30.86a3.83,3.83,0,0,1,0,3.87,3.89,3.89,0,0,1-3.38,1.94ZM162.73,74.29l-3.31-5.55-3.14,5.55Z"/><path class="cls-3" d="M179.76,89.84H175.9l-5.4-9.91H148.78c-.78,1.56-1.63,3.2-2.54,4.94s-1.79,3.39-2.62,5h-3.43l4.3-7.83q2.12-3.83,4.21-7.61c1.39-2.53,2.8-5.07,4.21-7.62L157.2,59h4.55ZM169.57,78.15,159.33,61l-9.71,17.15Z"/><path class="cls-3" d="M216.46,93.69a3.88,3.88,0,0,1-3.89-3.86V65.11H201.19a3.89,3.89,0,0,1-3.9-3.87V59a3.89,3.89,0,0,1,3.9-3.87h33.93A3.89,3.89,0,0,1,239,59v2.25a3.89,3.89,0,0,1-3.9,3.87H223.59V89.83a3.88,3.88,0,0,1-3.9,3.86Z"/><path class="cls-3" d="M235.12,61.24H219.69V89.83h-3.23V61.24H201.19V59h33.93Z"/><rect class="cls-9" x="14.72" y="101.75" width="29.09" height="29.09"/><rect class="cls-8" x="43.81" y="101.75" width="29.09" height="29.09"/><rect class="cls-5" x="72.71" y="101.75" width="29.09" height="29.09"/><rect class="cls-1" x="101.8" y="101.75" width="29.09" height="29.09"/><rect class="cls-9" x="130.89" y="101.75" width="29.09" height="29.09"/><rect class="cls-8" x="159.98" y="101.75" width="29.09" height="29.09"/><rect class="cls-5" x="189.07" y="101.75" width="29.09" height="29.09"/><rect class="cls-4" x="218.16" y="101.75" width="29.09" height="29.09"/></svg>